<svg width="256" height="256" viewBox="0 0 200 240" role="img" xmlns="http://www.w3.org/2000/svg">
  <title>BandBook icon</title>
  <desc>An open book with a quaver overlaid in green on a dark background</desc>

  <rect x="0" y="0" width="200" height="240" rx="6" fill="#1e1e2e"/>

  <rect x="8" y="16" width="88" height="208" rx="3" fill="#cdd6f4"/>
  <rect x="104" y="16" width="88" height="208" rx="3" fill="#cdd6f4"/>
  <rect x="94" y="10" width="12" height="220" rx="4" fill="#89b4fa"/>

  <rect x="8" y="224" width="88" height="8" rx="2" fill="#45475a"/>
  <rect x="104" y="224" width="88" height="8" rx="2" fill="#45475a"/>

  <line x1="20" y1="50" x2="88" y2="50" stroke="#45475a" stroke-width="2"/>
  <line x1="20" y1="68" x2="88" y2="68" stroke="#45475a" stroke-width="2"/>
  <line x1="20" y1="86" x2="88" y2="86" stroke="#45475a" stroke-width="2"/>
  <line x1="20" y1="104" x2="88" y2="104" stroke="#45475a" stroke-width="2"/>
  <line x1="20" y1="122" x2="88" y2="122" stroke="#45475a" stroke-width="2"/>

  <line x1="112" y1="50" x2="180" y2="50" stroke="#45475a" stroke-width="2"/>
  <line x1="112" y1="68" x2="180" y2="68" stroke="#45475a" stroke-width="2"/>
  <line x1="112" y1="86" x2="180" y2="86" stroke="#45475a" stroke-width="2"/>
  <line x1="112" y1="104" x2="180" y2="104" stroke="#45475a" stroke-width="2"/>
  <line x1="112" y1="122" x2="180" y2="122" stroke="#45475a" stroke-width="2"/>

  <ellipse cx="134" cy="190" rx="18" ry="13" transform="rotate(-20 134 190)" fill="#40a060"/>
  <line x1="149" y1="183" x2="149" y2="90" stroke="#40a060" stroke-width="5" stroke-linecap="round"/>
  <path d="M149 90 C175 95, 180 115, 162 128" stroke="#40a060" stroke-width="4" stroke-linecap="round" fill="none"/>
</svg>
